<svg xmlns="http://www.w3.org/2000/svg" width="23.832" height="10.31" viewBox="0 0 23.832 10.31">
  <path id="Path_144" data-name="Path 144" d="M22.3,100.787a2.387,2.387,0,0,0,1.531-2.144V98.4a2.6,2.6,0,0,0-2.77-2.4,2.767,2.767,0,0,0-2.628,1.639c-.286.742-.432,1.454-1.419,1.454H6.817c-1.02,0-1.176-.823-1.419-1.454A2.766,2.766,0,0,0,2.77,96,2.6,2.6,0,0,0,0,98.4v.246a2.387,2.387,0,0,0,1.531,2.144.39.39,0,0,1,0,.737A2.387,2.387,0,0,0,0,103.667v.246a2.6,2.6,0,0,0,2.77,2.4A2.767,2.767,0,0,0,5.4,104.672c.286-.742.432-1.454,1.419-1.454h10.2c1.02,0,1.176.823,1.419,1.454a2.767,2.767,0,0,0,2.628,1.639,2.6,2.6,0,0,0,2.77-2.4v-.246a2.387,2.387,0,0,0-1.531-2.144A.39.39,0,0,1,22.3,100.787Z" transform="translate(0 -96)" fill="#fff"/>
</svg>