<svg xmlns="http://www.w3.org/2000/svg" width="29.138" height="25.496" viewBox="0 0 29.138 25.496">
  <path id="Path_182" data-name="Path 182" d="M26.406,32H2.732A2.732,2.732,0,0,0,0,34.732V54.764A2.732,2.732,0,0,0,2.732,57.5H26.406a2.732,2.732,0,0,0,2.732-2.732V34.732A2.732,2.732,0,0,0,26.406,32Zm0,22.423a.342.342,0,0,1-.341.341H3.073a.342.342,0,0,1-.341-.341V35.073a.342.342,0,0,1,.341-.341H26.065a.342.342,0,0,1,.341.341ZM20.289,41.254l-3.494,3.494,3.494,3.494a.68.68,0,0,1,0,.956l-1.269,1.269a.68.68,0,0,1-.956,0l-3.494-3.494-3.494,3.494a.68.68,0,0,1-.956,0L8.85,49.2a.68.68,0,0,1,0-.956l3.494-3.494L8.85,41.254a.68.68,0,0,1,0-.956l1.269-1.269a.68.68,0,0,1,.956,0l3.494,3.494,3.494-3.494a.68.68,0,0,1,.956,0L20.289,40.3a.67.67,0,0,1,0,.956Z" transform="translate(0 -32)" fill="#616161"/>
</svg>