<svg id="facebook-square" xmlns="http://www.w3.org/2000/svg" width="20.322" height="20.322" viewBox="0 0 20.322 20.322">
  <path id="Path_120" data-name="Path 120" d="M18.145,32H2.177A2.177,2.177,0,0,0,0,34.177V50.145a2.177,2.177,0,0,0,2.177,2.177H8.4V45.413H5.546V42.161H8.4V39.683c0-2.819,1.678-4.377,4.249-4.377a17.313,17.313,0,0,1,2.519.22v2.767H13.752a1.626,1.626,0,0,0-1.834,1.757v2.112h3.12l-.5,3.252H11.919v6.909h6.226a2.177,2.177,0,0,0,2.177-2.177V34.177A2.177,2.177,0,0,0,18.145,32Z" transform="translate(0 -32)" fill="#0353ae"/>
</svg>