<svg id="check-circle-07" xmlns="http://www.w3.org/2000/svg" width="28.03" height="26.812" viewBox="0 0 28.03 26.812">
  <path id="Path_145" data-name="Path 145" d="M24.862,10.018a1.253,1.253,0,0,0-.853,1.462,12.019,12.019,0,0,1,.366,2.925A10.968,10.968,0,1,1,13.406,3.437a11.544,11.544,0,0,1,5.728,1.584,1.312,1.312,0,0,0,1.706-.366,1.312,1.312,0,0,0-.366-1.706A14.689,14.689,0,0,0,13.406,1,13.406,13.406,0,1,0,26.812,14.406a11.268,11.268,0,0,0-.487-3.534A1.253,1.253,0,0,0,24.862,10.018Z" transform="translate(0 -1)" fill="#03ae9c"/>
  <path id="Path_146" data-name="Path 146" d="M26.352,2.366a1.178,1.178,0,0,0-1.706,0L12.094,14.918,8.072,10.9A1.206,1.206,0,0,0,6.366,12.6l4.875,4.875a1.178,1.178,0,0,0,1.706,0L26.352,4.072A1.178,1.178,0,0,0,26.352,2.366Z" transform="translate(1.312 -0.781)" fill="#03ae9c"/>
</svg>