<svg id="globe" xmlns="http://www.w3.org/2000/svg" width="21.733" height="21.738" viewBox="0 0 21.733 21.738">
  <path id="Path_122" data-name="Path 122" d="M14.748,14.662C14.112,10.748,12.613,8,10.869,8S7.626,10.748,6.99,14.662ZM6.662,18.869a27.47,27.47,0,0,0,.145,2.8h8.121a27.47,27.47,0,0,0,.145-2.8,27.471,27.471,0,0,0-.145-2.8H6.806A27.47,27.47,0,0,0,6.662,18.869Zm14.23-4.207a10.892,10.892,0,0,0-6.925-6.206,14.792,14.792,0,0,1,2.191,6.206ZM7.766,8.456a10.885,10.885,0,0,0-6.92,6.206H5.579A14.732,14.732,0,0,1,7.766,8.456Zm13.595,7.608H16.334c.092.92.145,1.863.145,2.8s-.053,1.885-.145,2.8h5.022a10.775,10.775,0,0,0,.377-2.8,10.964,10.964,0,0,0-.373-2.8Zm-16.1,2.8c0-.942.053-1.885.145-2.8H.377a10.625,10.625,0,0,0,0,5.61H5.4C5.312,20.753,5.259,19.811,5.259,18.869ZM6.99,23.076c.635,3.914,2.134,6.662,3.879,6.662s3.243-2.748,3.879-6.662Zm6.982,6.206A10.9,10.9,0,0,0,20.9,23.076H16.163A14.792,14.792,0,0,1,13.972,29.282ZM.846,23.076A10.892,10.892,0,0,0,7.77,29.282a14.792,14.792,0,0,1-2.191-6.206H.846Z" transform="translate(0 -8)" fill="#111"/>
</svg>